<svg height="512pt" viewBox="0 0 512 512.001" width="512pt" xmlns="http://www.w3.org/2000/svg"><path d="m373.613281 256 120.722657-120.722656c11.390624-11.390625 17.664062-26.535156 17.664062-42.660156 0-24.738282-9.632812-47.996094-27.128906-65.488282-17.492188-17.496094-40.75-27.128906-65.503906-27.128906-16.109376 0-31.253907 6.273438-42.644532 17.664062l-120.722656 120.722657-133.992188-133.992188c-5.855468-5.859375-15.355468-5.859375-21.214843 0l-96.398438 96.398438c-2.8125 2.8125-4.394531 6.628906-4.394531 10.605469 0 3.980468 1.582031 7.792968 4.394531 10.609374l133.992188 133.992188-101.859375 101.859375c-1.921875 1.921875-3.285156 4.332031-3.945313 6.96875l-32.132812 128.535156c-1.277344 5.109375.21875 10.519531 3.945312 14.242188 2.847657 2.847656 6.679688 4.394531 10.605469 4.394531 1.210938 0 2.433594-.148438 3.636719-.449219l128.535156-32.132812c2.636719-.660157 5.046875-2.023438 6.96875-3.945313l101.859375-101.859375 133.992188 133.992188c2.929687 2.929687 6.769531 4.394531 10.605468 4.394531 3.839844 0 7.679688-1.464844 10.609375-4.394531l96.398438-96.398438c2.8125-2.8125 4.394531-6.628906 4.394531-10.605469 0-3.980468-1.582031-7.792968-4.394531-10.605468zm-241-48.199219 21.527344-21.527343c5.859375-5.859376 5.859375-15.355469 0-21.210938-5.855469-5.859375-15.355469-5.859375-21.214844 0l-21.523437 21.527344-26.988282-26.988282 37.59375-37.59375c5.859376-5.859374 5.859376-15.355468 0-21.214843-5.855468-5.855469-15.355468-5.855469-21.214843 0l-37.59375 37.59375-26.984375-26.988281 75.1875-75.183594 123.386718 123.386718-75.1875 75.1875zm133.992188-37.59375h.003906l131.328125-131.328125c5.722656-5.726562 13.335938-8.878906 21.445312-8.878906 11.605469 0 22.722657 3.140625 32.394532 9.011719l-337.230469 337.230469c-10.605469-8.085938-22.691406-14.3125-35.78125-18.191407zm-230.988281 306.175781 6.675781-26.699218c9.292969 3.347656 16.671875 10.726562 20.019531 20.027344zm55.878906-13.96875c-6.132813-19.984374-21.925782-35.777343-41.910156-41.910156l9.050781-36.207031c35.695312 5.070313 63.996093 33.371094 69.070312 69.066406zm62.457031-29.179687c-3.882813-13.089844-10.109375-25.175781-18.195313-35.78125l337.234376-337.230469c5.867187 9.675782 9.007812 20.796875 9.007812 32.410156 0 8.097657-3.152344 15.707032-8.875 21.429688zm246.648437 42.550781-26.988281-26.984375 37.59375-37.59375c5.859375-5.859375 5.859375-15.355469 0-21.214843-5.859375-5.855469-15.355469-5.855469-21.214843 0l-37.589844 37.59375-26.988282-26.984376 21.527344-21.527343c5.855469-5.859375 5.855469-15.355469 0-21.214844-5.859375-5.855469-15.355468-5.855469-21.214844 0l-21.527343 21.527344-26.984375-26.988281 37.59375-37.589844c0-.003906 0-.003906.003906-.007813l37.589844-37.585937 123.386718 123.386718zm0 0"/></svg>