<svg xmlns="http://www.w3.org/2000/svg" height="100" width="100"><rect id="backgroundrect" width="100%" height="100%" x="0" y="0" fill="none" stroke="none" class="" style=""/><g class="currentLayer" style=""><title>Layer 1</title><path d="m70.16785434421803,50.43373684530733 l21.29464137376876,-21.29464119737568 c2.009227258007115,-2.0092274344001955 3.1158183131606902,-4.6806179126508844 3.1158183131606902,-7.524956338303833 c0,-4.363661772231861 -1.6991613841048596,-8.46617888033805 -4.785351304293142,-11.55167980915327 c-3.085500928815221,-3.0861899201882825 -7.188018036921412,-4.785351304293142 -11.554435774645516,-4.785351304293142 c-2.8415824601607094,0 -5.512972938411395,1.1065910551535751 -7.522200372811592,3.1158183131606902 l-21.29464119737568,21.29464137376876 l-23.635294825780733,-23.635294825780733 c-1.032864039229844,-1.0335532069959852 -2.7085983055060017,-1.0335532069959852 -3.7421515125019864,0 l-17.00401744969449,17.00401744969449 c-0.4961055393580737,0.4961055393580737 -0.775164861148719,1.1692931507498545 -0.775164861148719,1.8707313487610029 c0,0.7021270129911289 0.2790593217906463,1.37462563300985 0.775164861148719,1.8714201637409833 l23.635294825780733,23.635294825780733 l-17.967288950418208,17.967288950418208 c-0.33900545189468356,0.33900545189468356 -0.5794787872908126,0.7641402936074289 -0.6959259142405045,1.2292392808538921 l-5.668005698969444,22.672712140036992 c-0.22531464322339523,0.9012583965004994 0.03858598639451682,1.8555724801951894 0.6959257378474236,2.512223416668115 c0.5023069908948592,0.5023068145017789 1.1782507441719636,0.775164861148719 1.8707313487610029,0.775164861148719 c0.21360108430904404,0 0.4292691427372698,-0.026183436107105332 0.6414920679071123,-0.07923912330129587 l22.672712140036992,-5.668005698969444 c0.46509898724646387,-0.11644712694969174 0.8902338289592087,-0.3569204623458209 1.2292392808538921,-0.6959259142405045 l17.967288950418208,-17.967288950418208 l23.635294825780733,23.635294825780733 c0.5167765153014529,0.5167765153014529 1.1940984277177582,0.775164861148719 1.8707311723679232,0.775164861148719 c0.6773219124163065,0 1.354643824832612,-0.2583883458472669 1.871420340134064,-0.775164861148719 l17.00401744969449,-17.00401744969449 c0.4961055393580737,-0.4961055393580737 0.775164861148719,-1.1692931507498545 0.775164861148719,-1.8707313487610029 c0,-0.7021270129911289 -0.2790593217906463,-1.37462563300985 -0.775164861148719,-1.8707311723679232 zm-42.510732439216206,-8.502008724847245 l3.7972745266015195,-3.797274350208439 c1.0335532069959852,-1.033553383389066 1.0335532069959852,-2.708598481899082 0,-3.7414626975220058 c-1.0328642156229249,-1.0335532069959852 -2.708598481899082,-1.0335532069959852 -3.742151688895068,0 l-3.79658535883538,3.7972745266015195 l-4.760546203718318,-4.760546203718318 l6.631277376086242,-6.631277376086242 c1.033553383389066,-1.0335530306029048 1.033553383389066,-2.7085983055060017 0,-3.7421515125019864 c-1.032864039229844,-1.0328642156229249 -2.7085983055060017,-1.0328642156229249 -3.7421515125019864,0 l-6.631277376086242,6.631277376086242 l-4.7598570359521775,-4.760546027325238 l13.262554752172484,-13.261865760799422 l21.764563300626648,21.764563300626648 l-13.262554752172484,13.262554752172484 zm23.635294825780733,-6.631277376086242 h0.0006889913730604927 l23.165372546136684,-23.165372546136684 c1.009436921401142,-1.0101259127742026 2.3523671873194028,-1.5661775822363133 3.7828046494087673,-1.5661775822363133 c2.0471244294216513,0 4.008119469025242,0.5539845189498479 5.7141712960399484,1.589604876458096 l-59.48512131954521,59.48512131954521 c-1.8707313487610029,-1.4263035138510003 -4.002607008861516,-2.5246259669555275 -6.311564917388817,-3.2088383222816805 zm-40.74473448209746,54.00728923426994 l1.1775615764058227,-4.70955731425023 c1.6392154303939028,0.5905033548321027 2.9408033916392435,1.8920913160774437 3.531306746471347,3.5326849056105476 zm9.856652373286776,-2.463990845478429 c-1.0817857781856717,-3.5251052949345603 -3.8675562328737896,-6.310875749622676 -7.3926615278083485,-7.3926615278083485 l1.5964951429748622,-6.386669739665588 c6.296406048823003,0.8943681299837327 11.288467994515342,5.886430075676072 12.183525115872133,12.182836124499074 zm11.016988107007602,-5.147094882643467 c-0.684901346699214,-2.308957908527301 -1.78322379980374,-4.440833568627814 -3.2095273136547395,-6.311564917388817 l59.48581048731135,-59.48512131954521 c1.0349311897421063,1.7067409947808474 1.5889157086919545,3.668424849364417 1.5889157086919545,5.71692726153219 c0,1.428370664363263 -0.5560516694621106,2.7706117625153817 -1.5654885908632523,3.7800486839165233 zm43.50707764256379,7.5056633451065755 l-4.760546027325238,-4.7598570359521775 l6.631277376086242,-6.631277376086242 c1.0335532069959852,-1.0335532069959852 1.0335532069959852,-2.708598481899082 0,-3.7421515125019864 c-1.0335532069959852,-1.0328642156229249 -2.708598481899082,-1.0328642156229249 -3.7421515125019864,0 l-6.630588384713182,6.631277376086242 l-4.760546203718318,-4.759857212345258 l3.7972745266015195,-3.797274350208439 c1.0328642156229249,-1.0335532069959852 1.0328642156229249,-2.708598481899082 0,-3.742151688895068 c-1.0335532069959852,-1.0328642156229249 -2.7085983055060017,-1.0328642156229249 -3.742151688895068,0 l-3.797274350208439,3.7972745266015195 l-4.7598570359521775,-4.760546027325238 l6.631277376086242,-6.630588384713182 c0,-0.0006889913730604927 0,-0.0006889913730604927 0.0006889913730604927,-0.0013781591392016473 l6.630588384713182,-6.6298992169470425 l21.764563300626648,21.764563300626648 zm0,0 " id="svg_1" class="" fill-opacity="1" fill="#fa528f"/></g></svg>