<?xml version="1.0" encoding="iso-8859-1"?>
<!-- Generator: Adobe Illustrator 19.0.0, SVG Export Plug-In . SVG Version: 6.00 Build 0)  -->
<svg version="1.1" id="Capa_1" xmlns="http://www.w3.org/2000/svg" xmlns:xlink="http://www.w3.org/1999/xlink" x="0px" y="0px"
	 viewBox="0 0 512 512" style="enable-background:new 0 0 512 512;" xml:space="preserve">
<g>
	<g>
		<path d="M457,331.723c-25.127,0-46.356,16.943-52.904,40H351v-58.555h54.213c58.883,0,106.787-47.904,106.787-106.787
			c0-47.211-31.312-88.685-75.764-102.193c-13.437-53.804-62.005-92.393-118.254-92.393c-21.805,0-42.693,5.623-61.127,16.366
			c-19.523-17.854-45.122-27.884-72.019-27.884c-57.693,0-104.847,45.991-106.729,103.233C32.446,116.273,0,158.08,0,206.381
			c0,58.883,47.904,106.787,106.787,106.787H161v58.555h-53.096c-6.547-23.057-27.777-40-52.904-40c-30.327,0-55,24.673-55,55
			c0,30.327,24.673,55,55,55c25.127,0,46.356-16.943,52.904-40H176c8.284,0,15-6.716,15-15v-73.555h50v90.651
			c-23.057,6.547-40,27.777-40,52.904c0,30.327,24.673,55,55,55c30.327,0,55-24.673,55-55c0-25.127-16.943-46.356-40-52.904v-90.651
			h50v73.555c0,8.284,6.716,15,15,15h68.096c6.547,23.057,27.777,40,52.904,40c30.327,0,55-24.673,55-55
			C512,356.396,487.327,331.723,457,331.723z M55,411.723c-13.785,0-25-11.215-25-25c0-13.785,11.215-25,25-25
			c13.785,0,25,11.215,25,25C80,400.508,68.785,411.723,55,411.723z M281,456.723c0,13.785-11.215,25-25,25
			c-13.785,0-25-11.215-25-25c0-13.785,11.215-25,25-25C269.785,431.723,281,442.938,281,456.723z M106.787,283.168
			c-42.34,0-76.787-34.446-76.787-76.787c0-37.843,28.207-70.506,65.61-75.976c7.893-1.154,13.501-8.284,12.765-16.226
			c-0.217-2.343-0.327-4.737-0.327-7.116c0-42.339,34.447-76.785,76.787-76.785c22.59,0,43.893,9.82,58.445,26.942
			c5.109,6.011,14,7.037,20.345,2.349c15.732-11.628,34.528-17.774,54.356-17.774c45.628,0,83.573,33.479,90.666,77.03
			c1.003,6.158,5.714,11.052,11.829,12.29c35.649,7.217,61.523,38.87,61.523,75.266c0,42.341-34.447,76.787-76.787,76.787H106.787z
			 M457,411.723c-13.785,0-25-11.215-25-25c0-13.785,11.215-25,25-25c13.785,0,25,11.215,25,25
			C482,400.508,470.785,411.723,457,411.723z"/>
	</g>
</g>
<g>
</g>
<g>
</g>
<g>
</g>
<g>
</g>
<g>
</g>
<g>
</g>
<g>
</g>
<g>
</g>
<g>
</g>
<g>
</g>
<g>
</g>
<g>
</g>
<g>
</g>
<g>
</g>
<g>
</g>
</svg>
