<svg xmlns="http://www.w3.org/2000/svg" xmlns:xlink="http://www.w3.org/1999/xlink" version="1.1" style="enable-background:new 0 0 512 512;" xml:space="preserve" width="100" height="100"><rect id="backgroundrect" width="100%" height="100%" x="0" y="0" fill="none" stroke="none" class="" style=""/>
















<g class="currentLayer" style=""><title>Layer 1</title><g id="svg_1" class="" fill-opacity="1" fill="#fa528f">
	<g id="svg_2" fill="#fa528f">
		<path d="M85.49519378741098,63.366417023368754 c-4.416000123083347,0 -8.146937625090606,2.9776849637999425 -9.297730350284612,7.029888364044012 H66.86598962269434 v-10.290877828914928 h9.527783446997951 c10.34852291350009,0 18.7675172182792,-8.41899430477911 18.7675172182792,-18.7675172182792 c0,-8.297201488872046 -5.5029966113736535,-15.58614123913108 -13.315311550335762,-17.960134539668744 c-2.3615152486914845,-9.455902838475602 -10.897205700313727,-16.23781189047796 -20.782810465041518,-16.23781189047796 c-3.8321678944494924,0 -7.503175598153275,0.9882265567754871 -10.74289965072296,2.8762788241486072 c-3.431112763280781,-3.137790671291045 -7.930065569059848,-4.9005351785750815 -12.657138252252144,-4.9005351785750815 c-10.13938373466978,0 -18.426567632623062,8.082789893768705 -18.757323880151333,18.14291163713389 C10.881013174702435,25.5016808225367 5.178719228208138,32.8491443934264 5.178719228208138,41.33791034021865 c0,10.34852291350009 8.41899430477911,18.7675172182792 18.7675172182792,18.7675172182792 H33.47401989348529 v10.290877828914928 h-9.331473814432021 c-1.1506169779849036,-4.052203400244069 -4.881730227201263,-7.029888364044012 -9.297730350284612,-7.029888364044012 c-5.329885610409069,0 -9.666096500560517,4.336210890151448 -9.666096500560517,9.666096500560517 c0,5.329885610409069 4.336210890151448,9.666096500560517 9.666096500560517,9.666096500560517 c4.416000123083347,0 8.146937625090606,-2.9776849637999425 9.297730350284612,-7.029888364044012 H36.11022803000179 c1.4558898801935154,0 2.6362081365165047,-1.1803182563229897 2.6362081365165047,-2.6362081365165047 v-12.927085965431434 h8.787360455055016 v15.931660252223843 c-4.052203400244069,1.1506169779849036 -7.029888364044012,4.881730227201263 -7.029888364044012,9.297730350284612 c0,5.329885610409069 4.336210890151448,9.666096500560517 9.666096500560517,9.666096500560517 c5.329885610409069,0 9.666096500560517,-4.336210890151448 9.666096500560517,-9.666096500560517 c0,-4.416000123083347 -2.9776849637999425,-8.146937625090606 -7.029888364044012,-9.297730350284612 v-15.931660252223843 h8.787360455055016 v12.927085965431434 c0,1.4558898801935154 1.1803182563229897,2.6362081365165047 2.6362081365165047,2.6362081365165047 h11.967681950948528 c1.1506169779849036,4.052203400244069 4.881730227201263,7.029888364044012 9.297730350284612,7.029888364044012 c5.329885610409069,0 9.666096500560517,-4.336210890151448 9.666096500560517,-9.666096500560517 C95.1612902879715,67.7026279135202 90.82507939782002,63.366417023368754 85.49519378741098,63.366417023368754 zM14.844815728768655,77.42619375145678 c-2.4226752774586675,0 -4.393680227527508,-1.97100495006884 -4.393680227527508,-4.393680227527508 c0,-2.4226752774586675 1.97100495006884,-4.393680227527508 4.393680227527508,-4.393680227527508 c2.4226752774586675,0 4.393680227527508,1.97100495006884 4.393680227527508,4.393680227527508 C19.238495956296163,75.45518880138795 17.267491006227296,77.42619375145678 14.844815728768655,77.42619375145678 zM54.56368498561733,85.3348181610063 c0,2.4226752774586675 -1.97100495006884,4.393680227527508 -4.393680227527508,4.393680227527508 c-2.4226752774586675,0 -4.393680227527508,-1.97100495006884 -4.393680227527508,-4.393680227527508 c0,-2.4226752774586675 1.97100495006884,-4.393680227527508 4.393680227527508,-4.393680227527508 C52.592680035548454,80.94113793347879 54.56368498561733,82.91214288354762 54.56368498561733,85.3348181610063 zM23.946236446487347,54.833011285464835 c-7.441136833340588,0 -13.495100945246191,-6.0537883646965005 -13.495100945246191,-13.495100945246191 c0,-6.6508016340129394 4.957301527114737,-12.391232724882178 11.530774389123192,-13.352569958665198 c1.3871727214349847,-0.20281227930266987 2.3727630700739555,-1.4558898801935154 2.2434131241755457,-2.8516742148744534 c-0.03813714437493881,-0.4117757109238783 -0.05746933737605985,-0.8325145295119116 -0.05746933737605985,-1.2506171399634298 c0,-7.440961086131486 6.053964111905603,-13.494749450827987 13.495100945246191,-13.494749450827987 c3.9701294535938567,0 7.714072249074596,1.7258375933728054 10.271545635913808,4.734981307601845 c0.8978924912975222,1.0564164739067146 2.4604609274154043,1.2367331104444428 3.5755769691618857,0.4128301941784847 c2.76485509357851,-2.043588547427594 6.068199635842792,-3.123730894562957 9.552915297899409,-3.123730894562957 c8.018993656865005,0 14.687721506206255,5.8838408134957385 15.934296460360361,13.537807517057756 c0.17627445072840378,1.0822513136445757 1.0042195528036872,1.942358154985361 2.0789137364569155,2.159933199852523 c6.265212257245126,1.2683676080826407 10.812495545526994,6.8312940177597685 10.812495545526994,13.227789440203416 c0,7.441312580549688 -6.053964111905603,13.495100945246191 -13.495100945246191,13.495100945246191 H23.946236446487347 zM85.49519378741098,77.42619375145678 c-2.4226752774586675,0 -4.393680227527508,-1.97100495006884 -4.393680227527508,-4.393680227527508 c0,-2.4226752774586675 1.97100495006884,-4.393680227527508 4.393680227527508,-4.393680227527508 c2.4226752774586675,0 4.393680227527508,1.97100495006884 4.393680227527508,4.393680227527508 C89.8888740149385,75.45518880138795 87.91786906486962,77.42619375145678 85.49519378741098,77.42619375145678 z" id="svg_3" fill="#fa528f"/>
	</g>
</g><g id="svg_4">
</g><g id="svg_5">
</g><g id="svg_6">
</g><g id="svg_7">
</g><g id="svg_8">
</g><g id="svg_9">
</g><g id="svg_10">
</g><g id="svg_11">
</g><g id="svg_12">
</g><g id="svg_13">
</g><g id="svg_14">
</g><g id="svg_15">
</g><g id="svg_16">
</g><g id="svg_17">
</g><g id="svg_18">
</g></g></svg>