<svg xmlns="http://www.w3.org/2000/svg" xmlns:xlink="http://www.w3.org/1999/xlink" version="1.1" style="" xml:space="preserve" width="100" height="100"><rect id="backgroundrect" width="100%" height="100%" x="0" y="0" fill="none" stroke="none" class="" style=""/>





















<g class="currentLayer" style=""><title>Layer 1</title><polygon style="" points="35.28986036800086,40.02730941772461 25.383115078335777,55.212139123065526 44.64851568529048,74.47775003505535 59.83335494995117,64.57080240645496 " id="svg_1" class="" fill-opacity="1" fill="#000000"/><polygon style="" points="77.51088643074036,45.95698571205139 54.42732548713684,22.87341332435608 34.016440629959106,26.06182312965393 21.324753999710083,38.75352120399475 37.852404832839966,39.44847893714905 60.93598484992981,62.532055139541626 61.63079380989075,79.05970406532288 74.32247853279114,66.36801552772522 " id="svg_2" class="" fill-opacity="1" fill="#fa528f"/><path style="" d="M94.58768009233575,5.2902087146497365 c-14.369118744850159,-3.987612816810608 -27.757066211700437,3.4444308872222904 -34.040287961483,9.727652637004853 c-1.8773431935310367,1.8771866569519045 -29.94701295375824,29.946856417179106 -29.94701295375824,29.946856417179106 l24.31263532447815,24.31263532447815 c0,0 25.411522109985352,-25.411522109985352 29.946856417179106,-29.946856417179106 C91.14293613195514,33.047274926350184 98.57513637256721,19.659170922920765 94.58768009233575,5.2902087146497365 z" id="svg_3" class="" fill-opacity="1" fill="#fa528f"/><path style="" d="M39.013056326996065,59.77937758624779 c-0.7623205378331777,-0.7623205378331777 -0.7623205378331777,-1.9985382639433742 0,-2.760858801776551 l27.143585667224663,-27.143585667224663 c0.7623205378331777,-0.7623205378331777 1.9985382639433742,-0.7623205378331777 2.760858801776551,0 c0.7623205378331777,0.7623205378331777 0.7623205378331777,1.9985382639433742 0,2.760858801776551 L41.773915128772614,59.77937758624779 C41.01142987172213,60.541698124080966 39.77537686482927,60.541862843298304 39.013056326996065,59.77937758624779 z" id="svg_4" class="" fill-opacity="1" fill="#ffffff"/><circle style="fill:#FFFFFF;" cx="80.15167999267578" cy="19.117748260498047" r="7.6088948249816895" id="svg_5" class=""/><g id="svg_6" class="" fill-opacity="1" fill="#fa528f">
	<path style="" d="M12.683251363566793,72.3081939643402 c-0.8380459237698753,-0.8380459237698753 -0.8380459237698753,-2.1970637841616005 0,-3.035109707931475 l8.191047821047214,-8.191047821047214 c0.8380459237698753,-0.8380459237698753 2.1970637841616005,-0.8380459237698753 3.035109707931475,0 c0.8380459237698753,0.8380459237698753 0.8380459237698753,2.1970637841616005 0,3.035109707931475 l-8.191047821047214,8.191047821047214 C14.880315147728394,73.14623988811007 13.521297287336669,73.14642096977036 12.683251363566793,72.3081939643402 z" id="svg_7" fill="#fa528f"/>
	<path style="" d="M26.526219965233132,86.15098148434627 c-0.8380459237698753,-0.8380459237698753 -0.8380459237698753,-2.1970637841616005 0,-3.035109707931475 l8.191047821047214,-8.191047821047214 c0.8380459237698753,-0.8380459237698753 2.1970637841616005,-0.8380459237698753 3.035109707931475,0 s0.8380459237698753,2.1970637841616005 0,3.035109707931475 l-8.191047821047214,8.191047821047214 C28.723102667734455,86.98920848977643 27.364265889003008,86.98920848977643 26.526219965233132,86.15098148434627 z" id="svg_8" fill="#fa528f"/>
	<path style="" d="M16.152957056167175,82.37560994919544 c-0.8380459237698753,-0.8380459237698753 -0.8380459237698753,-2.1970637841616005 0,-3.035109707931475 l11.489631344684213,-11.489631344684213 c0.8380459237698753,-0.8380459237698753 2.1970637841616005,-0.8380459237698753 3.035109707931475,0 c0.8380459237698753,0.8380459237698753 0.8380459237698753,2.1970637841616005 0,3.035109707931475 l-11.489631344684213,11.489631344684213 C18.350020840328774,83.2136558729653 16.991184061597327,83.2136558729653 16.152957056167175,82.37560994919544 z" id="svg_9" fill="#fa528f"/>
</g><g id="svg_10">
</g><g id="svg_11">
</g><g id="svg_12">
</g><g id="svg_13">
</g><g id="svg_14">
</g><g id="svg_15">
</g><g id="svg_16">
</g><g id="svg_17">
</g><g id="svg_18">
</g><g id="svg_19">
</g><g id="svg_20">
</g><g id="svg_21">
</g><g id="svg_22">
</g><g id="svg_23">
</g><g id="svg_24">
</g></g></svg>