<?xml version="1.0" encoding="UTF-8" standalone="no"?>
<!DOCTYPE svg PUBLIC "-//W3C//DTD SVG 1.1//EN" "http://www.w3.org/Graphics/SVG/1.1/DTD/svg11.dtd">
<svg version="1.1" xmlns="http://www.w3.org/2000/svg" xmlns:xlink="http://www.w3.org/1999/xlink" preserveAspectRatio="xMidYMid meet" viewBox="0 0 100 100" width="100" height="100"><defs><path d="M77.88 0.96C70.18 0.96 63.55 5.52 60.48 12.08C59.96 11.88 55.85 10.37 55.33 10.17C55.38 9.78 55.45 9.38 55.45 8.97C55.45 4.56 51.86 0.96 47.43 0.96C43.02 0.96 39.42 4.56 39.42 8.97C39.42 13.39 43.02 16.99 47.43 16.99C50.31 16.99 52.81 15.45 54.22 13.18C54.74 13.38 58.86 14.89 59.37 15.08C58.91 16.71 58.65 18.42 58.65 20.19C58.65 22.29 59 24.31 59.63 26.2C57.87 26.95 43.77 32.92 42 33.67C38.78 27.57 32.38 23.39 25 23.39C22.62 23.39 20.34 23.86 18.22 24.65C17.78 23.72 14.23 16.27 13.79 15.34C15.72 13.88 16.99 11.58 16.99 8.97C16.99 4.56 13.39 0.96 8.97 0.96C4.56 0.96 0.96 4.56 0.96 8.97C0.96 13.39 4.56 16.99 8.97 16.99C9.64 16.99 10.28 16.88 10.9 16.72C11.35 17.65 14.88 25.11 15.33 26.03C9.63 29.38 5.77 35.55 5.77 42.63C5.77 49.28 9.16 55.14 14.3 58.6C14.01 59.13 11.66 63.34 11.38 63.87C10.61 63.63 9.82 63.46 8.97 63.46C4.56 63.46 0.96 67.06 0.96 71.47C0.96 75.89 4.56 79.49 8.97 79.49C13.39 79.49 16.99 75.89 16.99 71.47C16.99 69.05 15.88 66.89 14.17 65.42C14.46 64.89 16.82 60.67 17.11 60.14C19.52 61.24 22.18 61.86 25 61.86C29.39 61.86 33.44 60.36 36.68 57.87C37.32 58.56 42.37 64.11 42.99 64.81C39.8 68.24 37.82 72.83 37.82 77.88C37.82 78.87 37.92 79.82 38.06 80.76C37.32 80.93 31.38 82.35 30.63 82.52C29.37 79.79 26.61 77.88 23.39 77.88C18.98 77.88 15.38 81.48 15.38 85.89C15.38 90.32 18.98 93.91 23.39 93.91C27.82 93.91 31.41 90.32 31.41 85.89C31.41 85.81 31.38 85.73 31.38 85.63C32.13 85.46 38.05 84.06 38.79 83.88C41.32 91.56 48.54 97.12 57.05 97.12C67.65 97.12 76.28 88.49 76.28 77.88C76.28 74.6 75.45 71.5 73.99 68.79C74.93 68.18 82.46 63.28 83.4 62.67C84.86 64.14 86.88 65.07 89.11 65.07C93.52 65.07 97.12 61.47 97.12 57.05C97.12 52.63 93.52 49.04 89.11 49.04C84.68 49.04 81.09 52.63 81.09 57.05C81.09 58.09 81.3 59.07 81.66 59.98C80.72 60.6 73.17 65.5 72.23 66.12C70.34 63.68 67.88 61.72 65.07 60.42C65.85 58.26 72.11 40.91 72.88 38.74C74.48 39.17 76.15 39.42 77.88 39.42C88.49 39.42 97.12 30.8 97.12 20.19C97.12 9.59 88.49 0.96 77.88 0.96ZM47.43 4.16C50.09 4.16 52.24 6.33 52.24 8.97C52.24 11.63 50.09 13.78 47.43 13.78C44.79 13.78 42.63 11.63 42.63 8.97C42.63 6.33 44.79 4.16 47.43 4.16ZM13.78 8.97C13.78 11.63 11.63 13.78 8.97 13.78C6.33 13.78 4.16 11.63 4.16 8.97C4.16 6.33 6.33 4.16 8.97 4.16C11.63 4.16 13.78 6.33 13.78 8.97ZM8.97 66.66C11.63 66.66 13.78 68.83 13.78 71.47C13.78 74.13 11.63 76.28 8.97 76.28C6.33 76.28 4.16 74.13 4.16 71.47C4.16 68.83 6.33 66.66 8.97 66.66ZM23.39 81.09C26.05 81.09 28.2 83.25 28.2 85.89C28.2 88.55 26.05 90.7 23.39 90.7C20.75 90.7 18.59 88.55 18.59 85.89C18.59 83.25 20.75 81.09 23.39 81.09ZM89.11 61.86C86.45 61.86 84.3 59.7 84.3 57.05C84.3 54.4 86.45 52.24 89.11 52.24C91.75 52.24 93.91 54.4 93.91 57.05C93.91 59.7 91.75 61.86 89.11 61.86ZM79.49 26.61C83.34 26.61 86.61 29.4 87.33 33.12C84.67 35.06 81.41 36.22 77.88 36.22C74.36 36.22 71.1 35.06 68.44 33.12C69.16 29.4 72.43 26.61 76.28 26.61C76.61 26.61 79.16 26.61 79.49 26.61ZM77.88 13.78C80.54 13.78 82.69 15.94 82.69 18.59C82.69 21.24 80.54 23.39 77.88 23.39C75.23 23.39 73.08 21.24 73.08 18.59C73.08 15.94 75.23 13.78 77.88 13.78ZM89.98 30.67C88.86 27.71 86.52 25.36 83.6 24.19C85.02 22.74 85.89 20.77 85.89 18.59C85.89 14.17 82.3 10.58 77.88 10.58C73.47 10.58 69.88 14.17 69.88 18.59C69.88 20.77 70.75 22.74 72.17 24.19C69.25 25.36 66.91 27.71 65.79 30.67C63.35 27.86 61.86 24.2 61.86 20.19C61.86 11.36 69.05 4.16 77.88 4.16C86.72 4.16 93.91 11.36 93.91 20.19C93.91 24.2 92.42 27.86 89.98 30.67ZM41.03 42.63C41.03 46.64 39.53 50.32 37.08 53.13C35.95 50.16 33.61 47.8 30.68 46.63C32.11 45.18 32.98 43.2 32.98 41.03C32.98 36.61 29.38 33.01 24.97 33.01C20.55 33.01 16.95 36.61 16.95 41.03C16.95 43.2 17.84 45.18 19.25 46.63C16.35 47.79 14.01 50.13 12.88 53.08C10.45 50.27 8.97 46.63 8.97 42.63C8.97 33.79 16.16 26.61 25 26.61C33.84 26.61 41.03 33.79 41.03 42.63ZM29.78 41.03C29.78 43.67 27.62 45.84 24.97 45.84C22.32 45.84 20.16 43.67 20.16 41.03C20.16 38.38 22.32 36.22 24.97 36.22C27.62 36.22 29.78 38.38 29.78 41.03ZM26.57 49.04C30.43 49.04 33.7 51.86 34.41 55.58C31.76 57.5 28.52 58.65 25 58.65C21.46 58.65 18.19 57.48 15.54 55.53C16.26 51.84 19.52 49.04 23.37 49.04C23.68 49.04 26.25 49.04 26.57 49.04ZM58.63 84.3C62.48 84.3 65.76 87.11 66.46 90.83C63.82 92.76 60.57 93.91 57.05 93.91C53.51 93.91 50.24 92.74 47.59 90.79C48.31 87.09 51.58 84.3 55.41 84.3C55.74 84.3 58.3 84.3 58.63 84.3ZM57.02 71.47C59.67 71.47 61.83 73.63 61.83 76.28C61.83 78.93 59.67 81.09 57.02 81.09C54.37 81.09 52.21 78.93 52.21 76.28C52.21 73.63 54.37 71.47 57.02 71.47ZM62.73 81.88C64.15 80.43 65.03 78.46 65.03 76.28C65.03 71.87 61.43 68.27 57.02 68.27C52.61 68.27 49.01 71.87 49.01 76.28C49.01 78.46 49.88 80.43 51.31 81.88C48.39 83.04 46.06 85.39 44.93 88.34C42.5 85.53 41.03 81.88 41.03 77.88C41.03 69.05 48.21 61.86 57.05 61.86C65.88 61.86 73.08 69.05 73.08 77.88C73.08 81.9 71.58 85.58 69.13 88.39C68.01 85.42 65.66 83.05 62.73 81.88ZM57.05 58.65C52.65 58.65 48.61 60.15 45.37 62.64C44.73 61.95 39.69 56.4 39.06 55.71C42.26 52.27 44.23 47.68 44.23 42.63C44.23 40.53 43.88 38.51 43.26 36.62C45.02 35.88 59.12 29.89 60.88 29.15C62.86 32.88 66.03 35.88 69.88 37.65C68.31 41.99 63.62 55 62.05 59.34C60.45 58.9 58.78 58.65 57.05 58.65Z" id="a6NQuWP8B"></path><path d="M77.88 0.96C70.18 0.96 63.55 5.52 60.48 12.08C59.96 11.88 55.85 10.37 55.33 10.17C55.38 9.78 55.45 9.38 55.45 8.97C55.45 4.56 51.86 0.96 47.43 0.96C43.02 0.96 39.42 4.56 39.42 8.97C39.42 13.39 43.02 16.99 47.43 16.99C50.31 16.99 52.81 15.45 54.22 13.18C54.74 13.38 58.86 14.89 59.37 15.08C58.91 16.71 58.65 18.42 58.65 20.19C58.65 22.29 59 24.31 59.63 26.2C57.87 26.95 43.77 32.92 42 33.67C38.78 27.57 32.38 23.39 25 23.39C22.62 23.39 20.34 23.86 18.22 24.65C17.78 23.72 14.23 16.27 13.79 15.34C15.72 13.88 16.99 11.58 16.99 8.97C16.99 4.56 13.39 0.96 8.97 0.96C4.56 0.96 0.96 4.56 0.96 8.97C0.96 13.39 4.56 16.99 8.97 16.99C9.64 16.99 10.28 16.88 10.9 16.72C11.35 17.65 14.88 25.11 15.33 26.03C9.63 29.38 5.77 35.55 5.77 42.63C5.77 49.28 9.16 55.14 14.3 58.6C14.01 59.13 11.66 63.34 11.38 63.87C10.61 63.63 9.82 63.46 8.97 63.46C4.56 63.46 0.96 67.06 0.96 71.47C0.96 75.89 4.56 79.49 8.97 79.49C13.39 79.49 16.99 75.89 16.99 71.47C16.99 69.05 15.88 66.89 14.17 65.42C14.46 64.89 16.82 60.67 17.11 60.14C19.52 61.24 22.18 61.86 25 61.86C29.39 61.86 33.44 60.36 36.68 57.87C37.32 58.56 42.37 64.11 42.99 64.81C39.8 68.24 37.82 72.83 37.82 77.88C37.82 78.87 37.92 79.82 38.06 80.76C37.32 80.93 31.38 82.35 30.63 82.52C29.37 79.79 26.61 77.88 23.39 77.88C18.98 77.88 15.38 81.48 15.38 85.89C15.38 90.32 18.98 93.91 23.39 93.91C27.82 93.91 31.41 90.32 31.41 85.89C31.41 85.81 31.38 85.73 31.38 85.63C32.13 85.46 38.05 84.06 38.79 83.88C41.32 91.56 48.54 97.12 57.05 97.12C67.65 97.12 76.28 88.49 76.28 77.88C76.28 74.6 75.45 71.5 73.99 68.79C74.93 68.18 82.46 63.28 83.4 62.67C84.86 64.14 86.88 65.07 89.11 65.07C93.52 65.07 97.12 61.47 97.12 57.05C97.12 52.63 93.52 49.04 89.11 49.04C84.68 49.04 81.09 52.63 81.09 57.05C81.09 58.09 81.3 59.07 81.66 59.98C80.72 60.6 73.17 65.5 72.23 66.12C70.34 63.68 67.88 61.72 65.07 60.42C65.85 58.26 72.11 40.91 72.88 38.74C74.48 39.17 76.15 39.42 77.88 39.42C88.49 39.42 97.12 30.8 97.12 20.19C97.12 9.59 88.49 0.96 77.88 0.96ZM47.43 4.16C50.09 4.16 52.24 6.33 52.24 8.97C52.24 11.63 50.09 13.78 47.43 13.78C44.79 13.78 42.63 11.63 42.63 8.97C42.63 6.33 44.79 4.16 47.43 4.16ZM13.78 8.97C13.78 11.63 11.63 13.78 8.97 13.78C6.33 13.78 4.16 11.63 4.16 8.97C4.16 6.33 6.33 4.16 8.97 4.16C11.63 4.16 13.78 6.33 13.78 8.97ZM8.97 66.66C11.63 66.66 13.78 68.83 13.78 71.47C13.78 74.13 11.63 76.28 8.97 76.28C6.33 76.28 4.16 74.13 4.16 71.47C4.16 68.83 6.33 66.66 8.97 66.66ZM23.39 81.09C26.05 81.09 28.2 83.25 28.2 85.89C28.2 88.55 26.05 90.7 23.39 90.7C20.75 90.7 18.59 88.55 18.59 85.89C18.59 83.25 20.75 81.09 23.39 81.09ZM89.11 61.86C86.45 61.86 84.3 59.7 84.3 57.05C84.3 54.4 86.45 52.24 89.11 52.24C91.75 52.24 93.91 54.4 93.91 57.05C93.91 59.7 91.75 61.86 89.11 61.86ZM79.49 26.61C83.34 26.61 86.61 29.4 87.33 33.12C84.67 35.06 81.41 36.22 77.88 36.22C74.36 36.22 71.1 35.06 68.44 33.12C69.16 29.4 72.43 26.61 76.28 26.61C76.61 26.61 79.16 26.61 79.49 26.61ZM77.88 13.78C80.54 13.78 82.69 15.94 82.69 18.59C82.69 21.24 80.54 23.39 77.88 23.39C75.23 23.39 73.08 21.24 73.08 18.59C73.08 15.94 75.23 13.78 77.88 13.78ZM89.98 30.67C88.86 27.71 86.52 25.36 83.6 24.19C85.02 22.74 85.89 20.77 85.89 18.59C85.89 14.17 82.3 10.58 77.88 10.58C73.47 10.58 69.88 14.17 69.88 18.59C69.88 20.77 70.75 22.74 72.17 24.19C69.25 25.36 66.91 27.71 65.79 30.67C63.35 27.86 61.86 24.2 61.86 20.19C61.86 11.36 69.05 4.16 77.88 4.16C86.72 4.16 93.91 11.36 93.91 20.19C93.91 24.2 92.42 27.86 89.98 30.67ZM41.03 42.63C41.03 46.64 39.53 50.32 37.08 53.13C35.95 50.16 33.61 47.8 30.68 46.63C32.11 45.18 32.98 43.2 32.98 41.03C32.98 36.61 29.38 33.01 24.97 33.01C20.55 33.01 16.95 36.61 16.95 41.03C16.95 43.2 17.84 45.18 19.25 46.63C16.35 47.79 14.01 50.13 12.88 53.08C10.45 50.27 8.97 46.63 8.97 42.63C8.97 33.79 16.16 26.61 25 26.61C33.84 26.61 41.03 33.79 41.03 42.63ZM29.78 41.03C29.78 43.67 27.62 45.84 24.97 45.84C22.32 45.84 20.16 43.67 20.16 41.03C20.16 38.38 22.32 36.22 24.97 36.22C27.62 36.22 29.78 38.38 29.78 41.03ZM26.57 49.04C30.43 49.04 33.7 51.86 34.41 55.58C31.76 57.5 28.52 58.65 25 58.65C21.46 58.65 18.19 57.48 15.54 55.53C16.26 51.84 19.52 49.04 23.37 49.04C23.68 49.04 26.25 49.04 26.57 49.04ZM58.63 84.3C62.48 84.3 65.76 87.11 66.46 90.83C63.82 92.76 60.57 93.91 57.05 93.91C53.51 93.91 50.24 92.74 47.59 90.79C48.31 87.09 51.58 84.3 55.41 84.3C55.74 84.3 58.3 84.3 58.63 84.3ZM57.02 71.47C59.67 71.47 61.83 73.63 61.83 76.28C61.83 78.93 59.67 81.09 57.02 81.09C54.37 81.09 52.21 78.93 52.21 76.28C52.21 73.63 54.37 71.47 57.02 71.47ZM62.73 81.88C64.15 80.43 65.03 78.46 65.03 76.28C65.03 71.87 61.43 68.27 57.02 68.27C52.61 68.27 49.01 71.87 49.01 76.28C49.01 78.46 49.88 80.43 51.31 81.88C48.39 83.04 46.06 85.39 44.93 88.34C42.5 85.53 41.03 81.88 41.03 77.88C41.03 69.05 48.21 61.86 57.05 61.86C65.88 61.86 73.08 69.05 73.08 77.88C73.08 81.9 71.58 85.58 69.13 88.39C68.01 85.42 65.66 83.05 62.73 81.88ZM57.05 58.65C52.65 58.65 48.61 60.15 45.37 62.64C44.73 61.95 39.69 56.4 39.06 55.71C42.26 52.27 44.23 47.68 44.23 42.63C44.23 40.53 43.88 38.51 43.26 36.62C45.02 35.88 59.12 29.89 60.88 29.15C62.86 32.88 66.03 35.88 69.88 37.65C68.31 41.99 63.62 55 62.05 59.34C60.45 58.9 58.78 58.65 57.05 58.65Z" id="al9VRVYTL"></path></defs><g><g><g><use xlink:href="#a6NQuWP8B" opacity="1" fill="#fa528f" fill-opacity="1"></use><g><use xlink:href="#a6NQuWP8B" opacity="1" fill-opacity="0" stroke="#000000" stroke-width="1" stroke-opacity="0"></use></g></g><g><use xlink:href="#al9VRVYTL" opacity="1" fill="#fa528f" fill-opacity="1"></use><g><use xlink:href="#al9VRVYTL" opacity="1" fill-opacity="0" stroke="#000000" stroke-width="1" stroke-opacity="0"></use></g></g></g></g></svg>