<svg id="Capa_1" enable-background="new 0 0 508 508" height="512" viewBox="0 0 508 508" width="512" xmlns="http://www.w3.org/2000/svg"><g><path d="m264 459c0 5.52-4.49 10-10 10s-10-4.48-10-10c0-5.51 4.49-10 10-10s10 4.49 10 10zm-184.374-246c-5.523 0-10 4.477-10 10s4.477 10 10 10h20.374v100c0 5.523 4.477 10 10 10s10-4.477 10-10v-100h20.374c5.523 0 10-4.477 10-10s-4.477-10-10-10zm346.374-78c23.159 0 42 18.841 42 42s-18.841 42-42 42-42-18.841-42-42 18.841-42 42-42zm-22 42c0 12.131 9.869 22 22 22s22-9.869 22-22-9.869-22-22-22-22 9.869-22 22zm-6 292h-99c-5.731 0-10.359-4.847-9.978-10.669.348-5.315 5.003-9.331 10.329-9.331h88.649v-20h-74c-16.569 0-30-13.431-30-30v-26c0-16.569 13.431-30 30-30h74v-42h-138c-5.523 0-10-4.477-10-10v-186c0-5.523 4.477-10 10-10h138v-26c0-5.523-4.477-10-10-10h-248c-5.523 0-10 4.477-10 10v99h90c5.523 0 10 4.477 10 10v200c0 5.523-4.477 10-10 10h-90v61h88.649c5.326 0 9.981 4.016 10.329 9.331.381 5.822-4.247 10.669-9.978 10.669h-99c-5.523 0-10-4.477-10-10v-71h-90c-5.523 0-10-4.477-10-10v-200c0-5.523 4.477-10 10-10h90v-99c0-16.569 13.431-30 30-30h248c16.569 0 30 13.431 30 30v26h90c5.523 0 10 4.477 10 10v186c0 5.523-4.477 10-10 10h-90v42h26c16.569 0 30 13.431 30 30v26c0 16.569-13.431 30-30 30h-26v30c0 5.523-4.477 10-10 10zm-198-281h-180v180h180zm234 175h-120c-5.514 0-10 4.486-10 10v26c0 5.514 4.486 10 10 10h120c5.514 0 10-4.486 10-10v-26c0-5.514-4.486-10-10-10zm-174-82h154.895l-92.318-86.297c-11.488-10.738-29.486-10.74-40.973 0l-21.604 20.196zm228-166h-228v72.521l7.946-7.428c19.147-17.898 49.144-17.897 68.289 0l107.948 100.907h43.817z"/></g></svg>