<?xml version="1.0" encoding="UTF-8" standalone="no"?>
<!DOCTYPE svg PUBLIC "-//W3C//DTD SVG 1.1//EN" "http://www.w3.org/Graphics/SVG/1.1/DTD/svg11.dtd">
<svg version="1.1" xmlns="http://www.w3.org/2000/svg" xmlns:xlink="http://www.w3.org/1999/xlink" preserveAspectRatio="xMidYMid meet" viewBox="0 0 100 100" width="100" height="100"><defs><path d="M50 84.59C48.92 84.59 48.03 83.71 48.03 82.62C48.03 81.54 48.92 80.66 50 80.66C51.08 80.66 51.97 81.54 51.97 82.62C51.97 83.71 51.08 84.59 50 84.59ZM15.67 34.23C14.59 34.23 13.71 35.11 13.71 36.2C13.71 37.28 14.59 38.16 15.67 38.16C15.94 38.16 17.28 38.16 19.69 38.16C19.69 49.97 19.69 56.52 19.69 57.84C19.69 58.92 20.57 59.8 21.65 59.8C22.74 59.8 23.62 58.92 23.62 57.84C23.62 56.52 23.62 49.97 23.62 38.16C26.03 38.16 27.37 38.16 27.63 38.16C28.72 38.16 29.6 37.28 29.6 36.2C29.6 35.11 28.72 34.23 27.63 34.23C25.24 34.23 18.07 34.23 15.67 34.23ZM92.13 27.15C92.13 31.7 88.42 35.41 83.86 35.41C79.3 35.41 75.59 31.7 75.59 27.15C75.59 22.59 79.3 18.89 83.86 18.89C88.42 18.89 92.13 22.59 92.13 27.15ZM83.86 31.48C86.25 31.48 88.19 29.53 88.19 27.15C88.19 24.76 86.25 22.82 83.86 22.82C81.47 22.82 79.53 24.76 79.53 27.15C79.53 29.53 81.47 31.48 83.86 31.48ZM58.86 84.59C57.73 84.59 56.82 83.64 56.89 82.49C56.96 81.45 57.88 80.66 58.93 80.66C60.09 80.66 65.91 80.66 76.38 80.66L76.38 76.72C67.64 76.72 62.78 76.72 61.81 76.72C58.55 76.72 55.91 74.08 55.91 70.82C55.91 70.31 55.91 66.22 55.91 65.7C55.91 62.45 58.55 59.8 61.81 59.8C62.78 59.8 67.64 59.8 76.38 59.8L76.38 51.54C60.08 51.54 51.02 51.54 49.21 51.54C48.13 51.54 47.24 50.66 47.24 49.57C47.24 45.91 47.24 16.64 47.24 12.98C47.24 11.9 48.13 11.02 49.21 11.02C51.02 11.02 60.08 11.02 76.38 11.02C76.38 7.95 76.38 6.24 76.38 5.9C76.38 4.82 75.5 3.93 74.41 3.93C69.53 3.93 30.47 3.93 25.59 3.93C24.5 3.93 23.62 4.82 23.62 5.9C23.62 7.2 23.62 13.69 23.62 25.38C34.25 25.38 40.16 25.38 41.34 25.38C42.43 25.38 43.31 26.26 43.31 27.34C43.31 31.28 43.31 62.75 43.31 66.69C43.31 67.77 42.43 68.66 41.34 68.66C40.16 68.66 34.25 68.66 23.62 68.66L23.62 80.66C34.09 80.66 39.91 80.66 41.07 80.66C42.12 80.66 43.04 81.45 43.11 82.49C43.18 83.64 42.27 84.59 41.14 84.59C39.19 84.59 23.6 84.59 21.65 84.59C20.57 84.59 19.69 83.71 19.69 82.62C19.69 81.69 19.69 77.04 19.69 68.66C9.06 68.66 3.15 68.66 1.97 68.66C0.88 68.66 0 67.77 0 66.69C0 62.75 0 31.28 0 27.34C0 26.26 0.88 25.38 1.97 25.38C3.15 25.38 9.06 25.38 19.69 25.38C19.69 13.69 19.69 7.2 19.69 5.9C19.69 2.64 22.33 0 25.59 0C30.47 0 69.53 0 74.41 0C77.67 0 80.31 2.64 80.31 5.9C80.31 6.24 80.31 7.95 80.31 11.02C90.94 11.02 96.85 11.02 98.03 11.02C99.12 11.02 100 11.9 100 12.98C100 16.64 100 45.91 100 49.57C100 50.66 99.12 51.54 98.03 51.54C96.85 51.54 90.94 51.54 80.31 51.54L80.31 59.8C83.39 59.8 85.09 59.8 85.43 59.8C88.69 59.8 91.34 62.45 91.34 65.7C91.34 66.22 91.34 70.31 91.34 70.82C91.34 74.08 88.69 76.72 85.43 76.72C85.09 76.72 83.39 76.72 80.31 76.72C80.31 80.26 80.31 82.23 80.31 82.62C80.31 83.71 79.43 84.59 78.35 84.59C74.45 84.59 60.81 84.59 58.86 84.59ZM39.37 29.31L3.94 29.31L3.94 64.72L39.37 64.72L39.37 29.31ZM61.81 63.74C60.73 63.74 59.84 64.62 59.84 65.7C59.84 66.22 59.84 70.31 59.84 70.82C59.84 71.9 60.73 72.79 61.81 72.79C64.17 72.79 83.07 72.79 85.43 72.79C86.52 72.79 87.4 71.9 87.4 70.82C87.4 70.31 87.4 66.22 87.4 65.7C87.4 64.62 86.52 63.74 85.43 63.74C80.71 63.74 64.17 63.74 61.81 63.74ZM51.18 47.61L81.67 47.61C70.77 37.42 64.71 31.76 63.5 30.63C61.24 28.52 57.7 28.52 55.43 30.63C55.15 30.89 53.73 32.22 51.18 34.6L51.18 47.61ZM96.06 14.95L51.18 14.95L51.18 29.22C52.12 28.34 52.64 27.85 52.75 27.76C56.51 24.24 62.42 24.24 66.19 27.76C67.6 29.08 74.69 35.7 87.44 47.61L96.06 47.61L96.06 14.95Z" id="j3Xk848WT2"></path></defs><g><g><g transform="matrix(1 0 0 1 0 0)" vector-effect="non-scaling-stroke"><use xlink:href="#j3Xk848WT2" opacity="1" fill="#fa528f" fill-opacity="1"></use><g><use xlink:href="#j3Xk848WT2" opacity="1" fill-opacity="0" stroke="#000000" stroke-width="1" stroke-opacity="0"></use></g></g></g></g></svg>